# xmcd
#
# Track frame offsets: 
#        150
#        16550
#        43407
#        64280
#        92775
#        152232
#        187657
#        204900
#        229947
#        263622
#
# Disc length: 3697 seconds
#
# Revision: 1
# Processed by: cddbd v1.5.2PL0 Copyright (c) Steve Scherf et al.
# Submitted via: ExactAudioCopyFreeDBPlugin 1.0
#
DISCID=7a0e6f0a
DTITLE=Rich Pawling's History Alive! Boys - Hammered in Iron:  Railroa
DTITLE=d Songs and Stories
DYEAR=0200
DGENRE=Trains
TTITLE0=Lining Track
TTITLE1=Railroad Medley
TTITLE2=Celebrated Workingman
TTITLE3=John Henry
TTITLE4=The Wagoners' Curse on the Railroad
TTITLE5=Paddy on the Canal
TTITLE6=Paddy on the Railroad
TTITLE7=No Irish Need Apply
TTITLE8=Drill Ye Tarrier Drill
TTITLE9=Never Take the Hindshoe from a Mule
EXTD=History Alive! Boys
EXTT0=
EXTT1=
EXTT2=
EXTT3=
EXTT4=
EXTT5=
EXTT6=
EXTT7=
EXTT8=
EXTT9=
PLAYORDER=
